<?xml version="1.0" standalone="no"?>
<!DOCTYPE svg PUBLIC "-//W3C//DTD SVG 20010904//EN"
 "http://www.w3.org/TR/2001/REC-SVG-20010904/DTD/svg10.dtd">
<svg version="1.0" xmlns="http://www.w3.org/2000/svg"
 width="1024.000000pt" height="1024.000000pt" viewBox="0 0 1024.000000 1024.000000"
 preserveAspectRatio="xMidYMid meet">

<g transform="translate(0.000000,1024.000000) scale(0.100000,-0.100000)"
fill="#000000" stroke="none">
<path d="M4653 8280 c-64 -15 -126 -76 -137 -135 l-6 -30 12 30 c21 50 48 84
87 107 l36 23 470 0 c419 0 473 -2 500 -17 42 -22 85 -67 101 -103 7 -16 13
-23 14 -14 0 28 -58 98 -102 121 -43 23 -45 23 -493 25 -247 1 -465 -2 -482
-7z"/>
<path d="M5737 8045 c3 -44 7 -82 9 -84 7 -8 3 73 -6 119 -6 34 -7 25 -3 -35z"/>
<path d="M4503 8070 c0 -25 2 -35 4 -22 2 12 2 32 0 45 -2 12 -4 2 -4 -23z"/>
<path d="M4480 7910 c-7 -61 -11 -113 -8 -115 2 -3 10 45 17 106 7 61 11 113
8 115 -2 3 -10 -45 -17 -106z"/>
<path d="M5751 7930 c0 -14 9 -81 19 -150 13 -85 18 -102 14 -55 -6 80 -32
242 -33 205z"/>
<path d="M4852 7873 c1 -37 1 -37 5 -5 l4 32 259 0 259 0 4 -47 3 -48 2 53 2
52 -270 0 -270 0 2 -37z"/>
<path d="M4830 7710 c-7 -67 -10 -123 -8 -126 3 -2 11 50 18 116 7 67 10 123
8 126 -3 2 -11 -50 -18 -116z"/>
<path d="M5393 7760 c0 -25 2 -35 4 -22 2 12 2 32 0 45 -2 12 -4 2 -4 -23z"/>
<path d="M4462 7750 c0 -19 2 -27 5 -17 2 9 2 25 0 35 -3 9 -5 1 -5 -18z"/>
<path d="M4452 7684 c-1 -17 -4 -47 -7 -65 l-5 -34 11 34 c5 18 8 47 6 65 l-4
31 -1 -31z"/>
<path d="M5401 7695 c0 -11 8 -87 19 -168 21 -164 36 -201 96 -237 34 -22 125
-50 154 -49 8 0 -16 9 -53 19 -76 20 -127 51 -151 91 -9 16 -25 92 -36 181
-22 165 -27 195 -29 163z"/>
<path d="M3251 7651 c50 -7 44 -3 289 -197 139 -109 220 -168 220 -160 0 2
-55 46 -122 97 -68 51 -166 127 -218 169 -115 93 -128 100 -177 99 -38 -2 -38
-2 8 -8z"/>
<path d="M6919 7637 c-52 -32 -460 -359 -455 -364 2 -2 55 38 118 89 332 270
348 282 417 289 l56 6 -50 1 c-36 2 -60 -4 -86 -21z"/>
<path d="M3102 7588 c-137 -128 -538 -540 -554 -571 -19 -35 -23 -84 -9 -119
8 -21 331 -431 369 -468 35 -35 -9 24 -171 224 -94 116 -176 225 -183 243 -18
43 -18 77 2 116 19 37 564 590 609 618 17 10 24 19 17 19 -7 0 -43 -28 -80
-62z"/>
<path d="M5790 7626 c0 -14 4 -27 8 -30 5 -3 6 8 4 25 -5 35 -12 38 -12 5z"/>
<path d="M7382 7340 c322 -326 342 -352 319 -422 -6 -19 -81 -121 -167 -228
-86 -107 -169 -211 -185 -231 l-28 -36 23 -34 c33 -48 168 -313 196 -382 12
-32 24 -56 26 -54 12 11 -154 352 -207 429 -11 14 -19 31 -19 38 0 6 79 111
176 232 97 121 183 237 192 259 29 76 13 98 -307 422 -157 159 -293 293 -301
298 -8 4 119 -127 282 -291z"/>
<path d="M4398 7583 c6 -2 18 -2 25 0 6 3 1 5 -13 5 -14 0 -19 -2 -12 -5z"/>
<path d="M5860 7574 c25 -7 50 -13 55 -13 18 1 -59 27 -80 28 -11 0 0 -7 25
-15z"/>
<path d="M4306 7564 c-26 -9 -46 -17 -44 -20 3 -2 31 4 64 15 32 10 52 19 44
19 -8 0 -37 -6 -64 -14z"/>
<path d="M4806 7509 c-4 -33 -5 -63 -3 -66 3 -2 8 23 12 57 4 34 5 63 2 66 -2
3 -7 -23 -11 -57z"/>
<path d="M5979 7539 c30 -10 56 -17 58 -15 5 5 -86 36 -101 35 -6 0 13 -9 43
-20z"/>
<path d="M4190 7521 c-114 -46 -193 -88 -292 -154 -60 -39 -108 -74 -108 -79
0 -4 28 13 62 38 83 61 175 113 273 156 44 19 91 40 105 46 42 18 8 12 -40 -7z"/>
<path d="M6070 7505 c14 -8 30 -14 35 -14 6 0 -1 6 -15 14 -14 8 -29 14 -35
14 -5 0 1 -6 15 -14z"/>
<path d="M6214 7435 c55 -31 132 -79 170 -107 39 -28 65 -44 58 -36 -30 36
-291 198 -318 198 -5 0 36 -25 90 -55z"/>
<path d="M4792 7410 c0 -14 2 -19 5 -12 2 6 2 18 0 25 -3 6 -5 1 -5 -13z"/>
<path d="M4765 7347 c-11 -17 -35 -42 -54 -54 -19 -13 -29 -23 -22 -23 18 0
105 85 100 97 -2 6 -13 -3 -24 -20z"/>
<path d="M4648 7263 c7 -3 16 -2 19 1 4 3 -2 6 -13 5 -11 0 -14 -3 -6 -6z"/>
<path d="M4575 7250 c-25 -11 1 -11 35 0 20 6 21 8 5 8 -11 0 -29 -3 -40 -8z"/>
<path d="M4528 7233 c7 -3 16 -2 19 1 4 3 -2 6 -13 5 -11 0 -14 -3 -6 -6z"/>
<path d="M5698 7233 c7 -3 16 -2 19 1 4 3 -2 6 -13 5 -11 0 -14 -3 -6 -6z"/>
<path d="M3112 7087 c-78 -79 -142 -148 -142 -154 0 -6 17 -30 38 -54 70 -81
271 -336 291 -370 12 -19 21 -29 21 -23 0 15 -42 72 -202 271 l-139 174 56 63
c71 81 217 221 228 218 5 -1 6 2 2 8 -3 5 -7 10 -9 10 -1 0 -66 -64 -144 -143z"/>
<path d="M4488 7223 c7 -3 16 -2 19 1 4 3 -2 6 -13 5 -11 0 -14 -3 -6 -6z"/>
<path d="M5745 7221 c11 -4 36 -11 55 -15 24 -4 29 -3 15 3 -11 4 -36 11 -55
15 -24 4 -29 3 -15 -3z"/>
<path d="M4435 7210 c-13 -6 -15 -9 -5 -9 8 0 22 4 30 9 18 12 2 12 -25 0z"/>
<path d="M6885 7158 c-96 -82 -325 -259 -355 -275 -31 -16 -84 -17 -113 -2
-12 7 -58 38 -102 69 -86 62 -146 100 -130 83 17 -17 194 -142 225 -158 64
-33 112 -18 222 68 160 125 204 160 252 200 27 23 56 47 65 54 9 6 14 13 11
16 -3 2 -36 -22 -75 -55z"/>
<path d="M7118 7080 c78 -80 142 -149 142 -154 0 -4 -68 -91 -150 -192 -195
-238 -200 -246 -200 -303 0 -40 9 -59 77 -161 42 -63 81 -119 86 -125 21 -22
-20 46 -85 141 -59 88 -68 108 -68 147 0 38 7 55 46 108 26 35 70 91 99 124
85 100 205 252 205 261 0 5 -66 74 -147 154 l-148 145 143 -145z"/>
<path d="M3286 7192 c11 -11 282 -225 339 -268 60 -47 100 -64 142 -63 l38 2
-45 6 c-25 4 -56 13 -69 20 -27 15 -212 157 -323 248 -43 35 -81 63 -85 63 -4
0 -3 -4 3 -8z"/>
<path d="M5841 7196 c2 -2 35 -16 74 -31 38 -14 112 -48 165 -75 52 -28 86
-43 75 -34 -52 41 -346 172 -314 140z"/>
<path d="M4322 7173 c-24 -8 -41 -17 -39 -19 4 -5 97 26 97 32 0 6 -11 4 -58
-13z"/>
<path d="M4177 7109 c-44 -22 -116 -65 -160 -96 -192 -132 -211 -146 -195
-140 9 3 74 46 145 94 70 48 168 109 218 135 49 26 86 47 80 47 -5 0 -45 -18
-88 -40z"/>
<path d="M5053 6543 c37 -2 96 -2 130 0 34 2 4 3 -68 3 -71 0 -99 -1 -62 -3z"/>
<path d="M4933 6533 c9 -2 23 -2 30 0 6 3 -1 5 -18 5 -16 0 -22 -2 -12 -5z"/>
<path d="M5268 6533 c12 -2 30 -2 40 0 9 3 -1 5 -23 4 -22 0 -30 -2 -17 -4z"/>
<path d="M4863 6523 c9 -2 23 -2 30 0 6 3 -1 5 -18 5 -16 0 -22 -2 -12 -5z"/>
<path d="M5343 6523 c9 -2 23 -2 30 0 6 3 -1 5 -18 5 -16 0 -22 -2 -12 -5z"/>
<path d="M4808 6513 c6 -2 18 -2 25 0 6 3 1 5 -13 5 -14 0 -19 -2 -12 -5z"/>
<path d="M5455 6500 c110 -30 126 -32 50 -5 -38 13 -81 24 -95 24 -14 0 7 -9
45 -19z"/>
<path d="M4768 6503 c7 -3 16 -2 19 1 4 3 -2 6 -13 5 -11 0 -14 -3 -6 -6z"/>
<path d="M4705 6490 c-13 -5 -14 -9 -5 -9 8 0 24 4 35 9 13 5 14 9 5 9 -8 0
-24 -4 -35 -9z"/>
<path d="M4582 6448 c-40 -17 -71 -32 -69 -34 2 -2 41 12 88 31 46 19 77 34
69 34 -8 -1 -48 -14 -88 -31z"/>
<path d="M3321 6454 c0 -11 3 -14 6 -6 3 7 2 16 -1 19 -3 4 -6 -2 -5 -13z"/>
<path d="M5634 6445 c33 -14 61 -23 63 -21 5 4 -96 46 -111 46 -6 -1 16 -12
48 -25z"/>
<path d="M3317 6398 c-4 -14 -41 -77 -83 -140 -66 -97 -194 -340 -194 -365 0
-4 33 57 73 137 40 80 98 181 129 225 65 93 91 142 85 158 -2 7 -7 0 -10 -15z"/>
<path d="M5780 6379 c237 -130 437 -316 561 -520 23 -38 44 -68 46 -65 8 7
-89 150 -157 232 -64 76 -158 165 -260 246 -48 38 -238 148 -255 148 -5 0 24
-19 65 -41z"/>
<path d="M2864 6354 c-66 -103 -212 -409 -201 -421 2 -2 12 18 22 44 25 67
137 290 185 368 49 79 44 87 -6 9z"/>
<path d="M4410 6361 c-227 -132 -453 -378 -581 -633 -58 -114 -47 -109 14 7
142 271 342 485 579 622 66 38 88 53 76 53 -2 0 -41 -22 -88 -49z"/>
<path d="M5068 6153 c34 -2 88 -2 120 0 31 2 3 3 -63 3 -66 0 -92 -1 -57 -3z"/>
<path d="M4953 6143 c9 -2 23 -2 30 0 6 3 -1 5 -18 5 -16 0 -22 -2 -12 -5z"/>
<path d="M5273 6143 c9 -2 23 -2 30 0 6 3 -1 5 -18 5 -16 0 -22 -2 -12 -5z"/>
<path d="M4898 6133 c7 -3 16 -2 19 1 4 3 -2 6 -13 5 -11 0 -14 -3 -6 -6z"/>
<path d="M5399 6114 c108 -32 169 -58 259 -111 175 -103 288 -219 397 -409 46
-82 61 -95 24 -21 -103 201 -276 371 -484 475 -80 40 -231 92 -263 91 -9 0 21
-11 67 -25z"/>
<path d="M4800 6111 c-202 -66 -384 -195 -510 -362 -58 -78 -170 -287 -170
-319 0 -8 15 19 33 61 136 311 357 516 662 615 39 12 63 22 55 23 -8 0 -40 -8
-70 -18z"/>
<path d="M7135 6019 c30 -62 69 -149 87 -195 35 -94 49 -108 18 -20 -22 64
-146 326 -154 326 -3 0 19 -50 49 -111z"/>
<path d="M7572 5935 c0 -5 6 -26 13 -45 7 -19 14 -28 14 -20 0 8 -6 29 -14 45
-7 17 -13 26 -13 20z"/>
<path d="M2636 5877 c-9 -23 -16 -48 -16 -54 0 -6 -9 -14 -20 -16 -19 -4 -19
-5 1 -3 16 1 25 14 40 55 22 65 19 80 -5 18z"/>
<path d="M3021 5849 c-6 -18 -9 -34 -7 -36 2 -2 9 10 15 28 6 18 9 34 7 36 -2
2 -9 -10 -15 -28z"/>
<path d="M7606 5830 c7 -28 12 -35 18 -29 2 2 -2 15 -10 29 l-15 25 7 -25z"/>
<path d="M2523 5793 c9 -2 25 -2 35 0 9 3 1 5 -18 5 -19 0 -27 -2 -17 -5z"/>
<path d="M7700 5790 c30 -5 71 -8 90 -8 28 1 25 2 -15 8 -27 5 -68 8 -90 8
-35 -1 -33 -2 15 -8z"/>
<path d="M2438 5783 c12 -2 32 -2 45 0 12 2 2 4 -23 4 -25 0 -35 -2 -22 -4z"/>
<path d="M2290 5770 c-41 -6 -42 -7 -10 -8 19 0 58 3 85 8 47 7 48 7 10 7 -22
0 -60 -3 -85 -7z"/>
<path d="M6390 5777 c0 -14 31 -69 36 -64 3 3 -4 20 -15 38 -12 19 -21 30 -21
26z"/>
<path d="M7858 5773 c12 -2 30 -2 40 0 9 3 -1 5 -23 4 -22 0 -30 -2 -17 -4z"/>
<path d="M7948 5763 c12 -2 30 -2 40 0 9 3 -1 5 -23 4 -22 0 -30 -2 -17 -4z"/>
<path d="M2173 5753 c15 -2 37 -2 50 0 12 2 0 4 -28 4 -27 0 -38 -2 -22 -4z"/>
<path d="M8043 5753 c9 -2 25 -2 35 0 9 3 1 5 -18 5 -19 0 -27 -2 -17 -5z"/>
<path d="M2070 5731 c-38 -20 -100 -93 -100 -118 0 -9 10 3 23 27 26 50 56 75
113 95 23 8 31 14 19 15 -11 0 -36 -8 -55 -19z"/>
<path d="M8137 5734 c24 -9 59 -34 82 -59 42 -45 54 -48 25 -6 -22 31 -103 81
-128 80 -13 0 -5 -6 21 -15z"/>
<path d="M2962 5678 c-30 -85 -27 -100 3 -18 14 36 23 69 22 73 -1 5 -13 -20
-25 -55z"/>
<path d="M7265 5708 c32 -107 58 -176 73 -195 23 -28 91 -73 111 -73 9 0 -2 9
-25 19 -61 28 -97 79 -127 181 -15 50 -30 90 -33 90 -3 0 -2 -10 1 -22z"/>
<path d="M6436 5685 c4 -11 25 -69 46 -130 21 -60 38 -103 38 -94 0 22 -55
180 -74 215 -10 16 -14 20 -10 9z"/>
<path d="M3761 5573 c-26 -71 -61 -219 -60 -253 0 -14 9 18 20 70 11 52 31
126 44 164 29 85 26 100 -4 19z"/>
<path d="M8261 5604 c0 -11 3 -14 6 -6 3 7 2 16 -1 19 -3 4 -6 -2 -5 -13z"/>
<path d="M1965 5115 c0 -264 1 -371 2 -237 2 134 2 350 0 480 -1 130 -2 21 -2
-243z"/>
<path d="M2916 5549 c-10 -23 -36 -53 -59 -70 -22 -16 -36 -29 -31 -29 31 0
128 119 112 136 -3 2 -12 -15 -22 -37z"/>
<path d="M8275 5120 c0 -256 1 -360 2 -233 2 128 2 338 0 465 -1 128 -2 24 -2
-232z"/>
<path d="M6100 5510 c0 -3 9 -30 21 -60 12 -30 29 -91 40 -135 14 -58 17 -66
13 -30 -6 52 -47 189 -64 215 -5 8 -10 13 -10 10z"/>
<path d="M2788 5443 c7 -3 16 -2 19 1 4 3 -2 6 -13 5 -11 0 -14 -3 -6 -6z"/>
<path d="M2675 5430 c-34 -6 -36 -7 -10 -8 17 0 48 3 70 7 33 7 35 9 10 8 -16
0 -48 -3 -70 -7z"/>
<path d="M6522 5430 c0 -8 4 -26 8 -40 6 -20 8 -21 8 -5 0 11 -3 29 -8 40 -5
12 -8 14 -8 5z"/>
<path d="M7505 5430 c22 -4 76 -10 120 -13 l80 -6 -95 14 c-104 15 -170 18
-105 5z"/>
<path d="M2568 5413 c12 -2 32 -2 45 0 12 2 2 4 -23 4 -25 0 -35 -2 -22 -4z"/>
<path d="M2463 5403 c15 -2 37 -2 50 0 12 2 0 4 -28 4 -27 0 -38 -2 -22 -4z"/>
<path d="M7728 5403 c12 -2 32 -2 45 0 12 2 2 4 -23 4 -25 0 -35 -2 -22 -4z"/>
<path d="M2347 5393 c-10 -9 -9 -541 1 -546 4 -3 48 -7 97 -10 l90 -5 -93 10
-93 11 3 273 c2 151 3 274 2 274 0 0 -4 -3 -7 -7z"/>
<path d="M2393 5393 c9 -2 23 -2 30 0 6 3 -1 5 -18 5 -16 0 -22 -2 -12 -5z"/>
<path d="M7823 5393 c15 -2 37 -2 50 0 12 2 0 4 -28 4 -27 0 -38 -2 -22 -4z"/>
<path d="M7904 5125 c0 -154 2 -216 3 -137 2 79 2 205 0 280 -1 75 -3 11 -3
-143z"/>
<path d="M4092 5334 c-26 -108 -34 -191 -30 -307 5 -107 32 -266 45 -253 2 2
-3 30 -12 62 -33 122 -30 375 6 492 6 18 9 37 7 43 -2 6 -9 -11 -16 -37z"/>
<path d="M6542 5335 c0 -16 2 -22 5 -12 2 9 2 23 0 30 -3 6 -5 -1 -5 -18z"/>
<path d="M6553 5260 c0 -25 2 -35 4 -22 2 12 2 32 0 45 -2 12 -4 2 -4 -23z"/>
<path d="M3693 5250 c0 -25 2 -35 4 -22 2 12 2 32 0 45 -2 12 -4 2 -4 -23z"/>
<path d="M6184 5110 c0 -63 1 -89 3 -57 2 31 2 83 0 115 -2 31 -3 5 -3 -58z"/>
<path d="M6564 5115 c0 -49 1 -71 3 -48 2 23 2 64 0 90 -2 26 -3 8 -3 -42z"/>
<path d="M3684 5095 c0 -49 1 -71 3 -48 2 23 2 64 0 90 -2 26 -3 8 -3 -42z"/>
<path d="M3693 4960 c0 -25 2 -35 4 -22 2 12 2 32 0 45 -2 12 -4 2 -4 -23z"/>
<path d="M6538 4884 c-10 -59 -16 -109 -14 -111 6 -6 38 183 34 202 -1 9 -11
-32 -20 -91z"/>
<path d="M6172 4955 c0 -16 2 -22 5 -12 2 9 2 23 0 30 -3 6 -5 -1 -5 -18z"/>
<path d="M6162 4895 c0 -16 2 -22 5 -12 2 9 2 23 0 30 -3 6 -5 -1 -5 -18z"/>
<path d="M3701 4882 c-2 -46 66 -307 68 -265 1 6 -4 24 -10 40 -6 15 -21 78
-34 138 -13 61 -24 100 -24 87z"/>
<path d="M6133 4787 c-12 -39 -20 -73 -18 -75 5 -5 47 127 43 137 -2 6 -13
-22 -25 -62z"/>
<path d="M7808 4843 c6 -2 18 -2 25 0 6 3 1 5 -13 5 -14 0 -19 -2 -12 -5z"/>
<path d="M7858 4843 c6 -2 18 -2 25 0 6 3 1 5 -13 5 -14 0 -19 -2 -12 -5z"/>
<path d="M7728 4833 c12 -2 32 -2 45 0 12 2 2 4 -23 4 -25 0 -35 -2 -22 -4z"/>
<path d="M2561 4826 c2 -2 58 -9 124 -15 133 -13 178 -32 215 -94 11 -18 20
-27 20 -20 0 18 -59 82 -89 98 -34 17 -287 46 -270 31z"/>
<path d="M7623 4823 c15 -2 39 -2 55 0 15 2 2 4 -28 4 -30 0 -43 -2 -27 -4z"/>
<path d="M7513 4813 c15 -2 39 -2 55 0 15 2 2 4 -28 4 -30 0 -43 -2 -27 -4z"/>
<path d="M7414 4796 c-67 -29 -95 -85 -191 -376 -4 -13 -3 -13 6 0 6 8 32 77
57 154 52 155 87 204 160 224 22 5 30 10 19 11 -11 0 -34 -6 -51 -13z"/>
<path d="M4115 4740 c24 -80 122 -259 160 -290 9 -7 -6 19 -33 58 -27 40 -67
112 -87 160 -38 89 -53 116 -40 72z"/>
<path d="M6484 4665 c-17 -49 -34 -99 -38 -110 -7 -19 -7 -19 4 -1 18 27 71
177 68 190 -2 6 -17 -29 -34 -79z"/>
<path d="M6096 4685 c-9 -26 -7 -32 5 -12 6 10 9 21 6 23 -2 3 -7 -2 -11 -11z"/>
<path d="M2922 4670 c3 -8 15 -46 28 -83 12 -38 24 -66 26 -64 5 5 -43 148
-53 156 -3 3 -4 -1 -1 -9z"/>
<path d="M6059 4608 c-51 -102 -147 -213 -259 -301 -83 -65 -93 -74 -52 -51
39 22 166 134 209 184 54 63 144 210 128 210 -2 0 -14 -19 -26 -42z"/>
<path d="M8247 4609 c-21 -45 -69 -85 -124 -105 -21 -7 -30 -13 -20 -14 48 -1
145 78 162 130 12 36 1 30 -18 -11z"/>
<path d="M1970 4623 c0 -22 65 -96 101 -115 20 -10 58 -20 85 -22 27 -2 38 -2
24 1 -93 16 -151 52 -192 118 -10 16 -18 25 -18 18z"/>
<path d="M3770 4595 c0 -5 5 -17 10 -25 5 -8 10 -10 10 -5 0 6 -5 17 -10 25
-5 8 -10 11 -10 5z"/>
<path d="M3790 4546 c0 -10 70 -146 75 -146 3 0 -11 33 -31 73 -38 74 -44 85
-44 73z"/>
<path d="M6420 4511 c-12 -24 -13 -34 -1 -27 9 6 22 46 15 46 -2 0 -8 -9 -14
-19z"/>
<path d="M2980 4508 c0 -11 40 -117 65 -173 15 -33 36 -80 46 -104 11 -24 22
-42 24 -39 3 2 -8 31 -24 64 -15 32 -45 102 -66 154 -35 89 -45 110 -45 98z"/>
<path d="M8033 4483 c9 -2 25 -2 35 0 9 3 1 5 -18 5 -19 0 -27 -2 -17 -5z"/>
<path d="M2248 4473 c12 -2 30 -2 40 0 9 3 -1 5 -23 4 -22 0 -30 -2 -17 -4z"/>
<path d="M7938 4473 c12 -2 32 -2 45 0 12 2 2 4 -23 4 -25 0 -35 -2 -22 -4z"/>
<path d="M2338 4463 c12 -2 30 -2 40 0 9 3 -1 5 -23 4 -22 0 -30 -2 -17 -4z"/>
<path d="M6381 4433 c-61 -116 -212 -297 -332 -398 -97 -82 -243 -174 -351
-221 -86 -38 -111 -52 -68 -39 59 18 196 90 297 156 131 86 298 251 389 384
62 90 99 155 89 155 -2 0 -13 -17 -24 -37z"/>
<path d="M7838 4463 c12 -2 32 -2 45 0 12 2 2 4 -23 4 -25 0 -35 -2 -22 -4z"/>
<path d="M2433 4453 c9 -2 25 -2 35 0 9 3 1 5 -18 5 -19 0 -27 -2 -17 -5z"/>
<path d="M7748 4453 c12 -2 32 -2 45 0 12 2 2 4 -23 4 -25 0 -35 -2 -22 -4z"/>
<path d="M2518 4443 c12 -2 32 -2 45 0 12 2 2 4 -23 4 -25 0 -35 -2 -22 -4z"/>
<path d="M7648 4443 c12 -2 30 -2 40 0 9 3 -1 5 -23 4 -22 0 -30 -2 -17 -4z"/>
<path d="M2626 4370 c41 -116 101 -246 156 -345 71 -125 132 -224 124 -201 -3
10 -31 60 -60 110 -77 130 -158 296 -197 401 -18 50 -37 95 -41 100 -5 6 3
-24 18 -65z"/>
<path d="M7595 4393 c-75 -204 -135 -335 -225 -488 l-52 -86 63 -82 c35 -45
111 -141 170 -212 59 -72 116 -146 128 -165 23 -38 27 -98 10 -133 -10 -21
-10 -21 5 -3 22 28 20 94 -4 134 -12 19 -76 102 -143 185 -68 84 -144 180
-170 214 l-48 63 41 67 c89 146 262 534 246 550 -2 2 -12 -17 -21 -44z"/>
<path d="M4362 4357 c67 -66 159 -132 246 -176 69 -35 48 -16 -31 27 -79 43
-152 97 -233 171 -27 25 -19 15 18 -22z"/>
<path d="M7182 4328 c-18 -39 -30 -73 -28 -75 2 -2 17 29 35 68 18 39 30 73
28 75 -2 2 -18 -29 -35 -68z"/>
<path d="M3889 4354 c60 -109 226 -291 348 -383 71 -53 203 -134 209 -129 2 2
-25 20 -59 40 -162 93 -356 274 -458 427 -60 89 -71 102 -40 45z"/>
<path d="M5635 4199 c-38 -21 -107 -51 -152 -66 -45 -15 -81 -29 -78 -31 13
-13 284 102 300 128 8 12 13 15 -70 -31z"/>
<path d="M7110 4178 c-18 -35 -58 -103 -89 -151 -96 -151 -111 -180 -110 -217
l2 -35 6 40 c8 47 18 66 81 160 60 90 153 255 147 261 -2 3 -19 -23 -37 -58z"/>
<path d="M3120 4176 c0 -9 73 -129 132 -220 32 -48 58 -93 58 -99 0 -6 3 -8 6
-4 7 7 -32 76 -81 147 -18 25 -49 75 -69 113 -34 60 -46 77 -46 63z"/>
<path d="M4670 4150 c8 -5 20 -10 25 -10 6 0 3 5 -5 10 -8 5 -19 10 -25 10 -5
0 -3 -5 5 -10z"/>
<path d="M4750 4120 c8 -5 22 -9 30 -9 10 0 8 3 -5 9 -27 12 -43 12 -25 0z"/>
<path d="M4815 4100 c11 -5 29 -8 40 -8 16 0 15 2 -5 8 -34 11 -60 11 -35 0z"/>
<path d="M5325 4090 c-27 -7 -27 -8 -5 -8 14 0 36 4 50 8 20 6 21 8 5 8 -11 0
-33 -4 -50 -8z"/>
<path d="M4888 4083 c6 -2 18 -2 25 0 6 3 1 5 -13 5 -14 0 -19 -2 -12 -5z"/>
<path d="M4943 4073 c9 -2 25 -2 35 0 9 3 1 5 -18 5 -19 0 -27 -2 -17 -5z"/>
<path d="M5110 4070 l-115 -6 105 -1 c58 -1 125 2 150 6 39 7 40 8 10 8 -19
-1 -87 -4 -150 -7z"/>
<path d="M3322 3815 c0 -16 2 -22 5 -12 2 9 2 23 0 30 -3 6 -5 -1 -5 -18z"/>
<path d="M4460 3835 c0 -7 61 -37 66 -33 2 3 -12 12 -31 21 -19 9 -35 15 -35
12z"/>
<path d="M2863 3763 c-15 -21 -84 -108 -153 -193 -156 -193 -169 -211 -176
-249 -13 -62 3 -96 94 -198 225 -253 487 -513 548 -543 75 -37 108 -27 234 69
116 88 332 261 350 279 32 31 -15 -2 -110 -78 -192 -154 -326 -256 -353 -268
-68 -30 -120 -8 -228 95 -150 143 -491 507 -511 547 -15 28 -19 52 -15 83 5
47 13 59 222 317 66 81 124 154 128 162 16 27 -2 13 -30 -23z"/>
<path d="M4540 3797 c0 -11 174 -67 267 -87 111 -23 361 -36 463 -23 48 6 14
8 -135 8 -249 0 -382 23 -577 100 -10 4 -18 5 -18 2z"/>
<path d="M3311 3770 c-1 -8 -29 -50 -63 -94 -34 -43 -57 -76 -51 -73 24 15
125 157 120 169 -4 10 -6 9 -6 -2z"/>
<path d="M5485 3739 c-16 -5 -57 -16 -90 -24 -52 -13 -54 -14 -15 -9 46 5 178
42 150 42 -8 0 -28 -4 -45 -9z"/>
<path d="M6931 3745 c-1 -11 256 -336 292 -370 24 -23 -7 17 -154 200 -57 72
-112 142 -121 155 -9 14 -17 20 -17 15z"/>
<path d="M3078 3464 c-57 -69 -106 -132 -111 -140 -5 -9 40 -62 146 -170 l153
-158 105 79 c57 44 157 121 222 172 75 58 129 94 150 97 18 3 43 7 57 9 17 3
13 5 -12 6 -20 0 -49 -4 -63 -9 -15 -6 -123 -85 -242 -176 l-215 -167 -80 79
c-44 44 -111 113 -149 155 l-69 77 96 118 c53 66 104 127 112 137 8 9 12 17 9
17 -4 0 -53 -57 -109 -126z"/>
<path d="M6458 3353 c12 -2 30 -2 40 0 9 3 -1 5 -23 4 -22 0 -30 -2 -17 -4z"/>
<path d="M3866 3324 c21 -15 66 -46 99 -69 69 -48 155 -99 155 -92 0 3 -28 23
-62 43 -35 21 -96 62 -137 91 -41 29 -78 53 -84 53 -5 0 8 -12 29 -26z"/>
<path d="M6308 3284 c-54 -36 -139 -87 -190 -114 -51 -27 -89 -50 -85 -50 19
0 194 96 281 155 50 34 98 65 106 68 13 5 13 5 0 5 -8 0 -59 -29 -112 -64z"/>
<path d="M6563 3318 c36 -26 322 -243 395 -301 6 -5 12 -7 12 -4 0 3 -55 47
-122 98 -68 52 -165 126 -216 166 -51 40 -98 73 -104 73 -5 0 10 -15 35 -32z"/>
<path d="M7255 3326 c10 -14 19 -26 22 -26 7 0 -17 39 -28 46 -6 3 -3 -5 6
-20z"/>
<path d="M7118 3163 c-76 -75 -137 -138 -135 -139 2 -2 66 60 142 136 77 77
138 140 135 140 -3 0 -67 -62 -142 -137z"/>
<path d="M7421 2943 c-285 -292 -346 -348 -399 -364 -73 -21 -120 5 -381 213
-159 128 -199 158 -205 158 -4 0 -41 -24 -84 -54 -42 -29 -110 -70 -149 -90
-40 -20 -73 -39 -73 -41 0 -10 148 69 227 122 l81 54 189 -148 c248 -195 257
-202 298 -219 86 -35 129 -11 333 190 168 165 428 436 419 436 -3 0 -118 -116
-256 -257z"/>
<path d="M4144 3146 c11 -9 24 -16 30 -16 12 0 7 5 -24 19 -24 11 -24 11 -6
-3z"/>
<path d="M4220 3110 c19 -11 40 -19 45 -19 6 0 -6 8 -25 19 -19 11 -39 19 -45
19 -5 0 6 -8 25 -19z"/>
<path d="M5955 3097 c-27 -11 -93 -33 -145 -49 -52 -15 -77 -26 -56 -22 46 7
209 60 246 80 37 19 13 15 -45 -9z"/>
<path d="M4290 3082 c8 -5 26 -13 40 -16 17 -5 20 -4 10 2 -8 5 -26 13 -40 16
-17 5 -20 4 -10 -2z"/>
<path d="M4410 3040 c30 -11 64 -19 75 -19 11 0 -9 9 -45 19 -82 24 -103 24
-30 0z"/>
<path d="M4555 3005 c28 -7 59 -13 70 -13 11 0 -2 6 -30 13 -27 7 -59 13 -70
13 -11 0 3 -6 30 -13z"/>
<path d="M5688 3013 c7 -3 16 -2 19 1 4 3 -2 6 -13 5 -11 0 -14 -3 -6 -6z"/>
<path d="M5577 2996 c-50 -14 -99 -53 -123 -98 -23 -44 -16 -46 10 -3 33 55
75 83 149 99 34 8 51 14 37 14 -14 1 -47 -5 -73 -12z"/>
<path d="M4685 2971 c50 -23 83 -58 100 -108 8 -21 14 -30 15 -20 1 52 -92
148 -142 147 -7 0 5 -9 27 -19z"/>
<path d="M3784 2951 c14 -23 207 -143 297 -185 89 -42 218 -87 243 -85 6 0
-27 13 -74 28 -122 39 -260 108 -374 186 -54 37 -96 63 -92 56z"/>
<path d="M5415 2702 c-10 -82 -16 -155 -13 -162 2 -7 12 58 22 144 10 87 16
160 13 162 -2 2 -12 -63 -22 -144z"/>
<path d="M4801 2800 c-1 -14 8 -88 19 -165 10 -77 22 -175 26 -217 l7 -78 266
2 266 3 -261 2 -261 3 -12 113 c-16 150 -49 368 -50 337z"/>
<path d="M6090 2750 c-8 -5 -10 -10 -5 -10 6 0 17 5 25 10 8 5 11 10 5 10 -5
0 -17 -5 -25 -10z"/>
<path d="M6040 2730 c-8 -5 -10 -10 -5 -10 6 0 17 5 25 10 8 5 11 10 5 10 -5
0 -17 -5 -25 -10z"/>
<path d="M5930 2695 c-19 -7 -28 -13 -20 -13 8 0 31 6 50 13 19 7 28 13 20 13
-8 0 -31 -6 -50 -13z"/>
<path d="M4348 2673 c7 -3 16 -2 19 1 4 3 -2 6 -13 5 -11 0 -14 -3 -6 -6z"/>
<path d="M5823 2669 c-27 -8 -33 -14 -32 -37 l1 -27 7 25 c5 18 18 27 51 36
25 7 36 12 25 12 -11 0 -35 -4 -52 -9z"/>
<path d="M4388 2663 c6 -2 18 -2 25 0 6 3 1 5 -13 5 -14 0 -19 -2 -12 -5z"/>
<path d="M4436 2646 c3 -8 16 -95 29 -193 14 -98 22 -146 19 -108 -8 118 -36
315 -45 315 -5 0 -6 -6 -3 -14z"/>
<path d="M5766 2452 c-10 -84 -15 -156 -12 -159 3 -4 6 -1 6 6 0 6 7 70 16
141 8 71 14 138 12 147 -2 10 -12 -51 -22 -135z"/>
<path d="M5385 2445 c-4 -42 -5 -79 -2 -81 2 -3 8 29 12 71 4 42 5 79 2 81 -2
3 -8 -29 -12 -71z"/>
<path d="M5736 2209 c-4 -39 -5 -73 -3 -76 3 -2 8 28 12 67 4 39 5 73 2 76 -2
3 -8 -27 -11 -67z"/>
<path d="M4493 2230 c0 -25 2 -35 4 -22 2 12 2 32 0 45 -2 12 -4 2 -4 -23z"/>
<path d="M4504 2142 c6 -62 50 -120 111 -149 l50 -23 455 2 455 3 -465 5
c-412 4 -469 7 -496 22 -47 26 -92 83 -99 125 -10 56 -16 64 -11 15z"/>
<path d="M5710 2082 c0 -6 -17 -28 -37 -48 -21 -20 -32 -35 -24 -32 20 6 76
76 68 85 -4 3 -7 1 -7 -5z"/>
<path d="M5595 1990 c-13 -6 -15 -9 -5 -9 8 0 22 4 30 9 18 12 2 12 -25 0z"/>
</g>
</svg>
